<svg id="Layer_1" data-name="Layer 1" xmlns="http://www.w3.org/2000/svg" viewBox="0 0 474.74 286.3"><defs><style>.cls-1{fill:#7c68ee;}</style></defs><path class="cls-1" d="M75.51,361.78a87.76,87.76,0,0,1-34.24-36.66q-12.17-23.73-12.16-55v-77q0-31.24,12.16-55a88.35,88.35,0,0,1,34.24-36.75q22.09-13,51.22-13a96.37,96.37,0,0,1,44.38,10.33A93.53,93.53,0,0,1,205,128q13.6,18.92,18.43,43.8H183.07a62.65,62.65,0,0,0-12.25-23.44,60.15,60.15,0,0,0-20.16-15.92,54.4,54.4,0,0,0-23.93-5.59q-17.17,0-30.09,8.29a55.07,55.07,0,0,0-20.07,23.25q-7.14,15-7.14,34.82v77q0,19.68,7.14,34.72a54.25,54.25,0,0,0,20.07,23.25q12.92,8.2,30.09,8.2a57.52,57.52,0,0,0,24-5.21,56.54,56.54,0,0,0,20.07-15.43,61.33,61.33,0,0,0,12.25-24.31h40.32q-4.83,24.88-18.52,43.79a94.37,94.37,0,0,1-34,29.23,95.89,95.89,0,0,1-44.18,10.32Q97.6,374.7,75.51,361.78Z" transform="translate(-29.11 -88.4)"/><path class="cls-1" d="M223.34,171.55h41.1l35.5,143,50-143h27.4l50,143,35.5-143h41.1L442.12,371.81H412.41L363.6,233.48,314.79,371.81H285.08Z" transform="translate(-29.11 -88.4)"/></svg>